<mxfile host="app.diagrams.net" agent="Mozilla/5.0 (Windows NT 10.0; Win64; x64) AppleWebKit/537.36 (KHTML, like Gecko) Chrome/136.0.0.0 Safari/537.36" version="27.0.6">
  <diagram name="Страница — 1" id="vvYwB-wQn6KMuV3kbXWN">
    <mxGraphModel dx="1425" dy="765" grid="1" gridSize="10" guides="1" tooltips="1" connect="1" arrows="1" fold="1" page="1" pageScale="1" pageWidth="1920" pageHeight="3000" math="0" shadow="0">
      <root>
        <mxCell id="0" />
        <mxCell id="1" parent="0" />
        <mxCell id="xDN-VP0Rzdzxa3bw4vOh-141" value="Начало" style="rounded=1;whiteSpace=wrap;arcSize=50;strokeWidth=2;" vertex="1" parent="1">
          <mxGeometry x="976" y="90" width="78" height="39" as="geometry" />
        </mxCell>
        <mxCell id="xDN-VP0Rzdzxa3bw4vOh-142" value="n = int((xn - x0) / h)" style="whiteSpace=wrap;strokeWidth=2;" vertex="1" parent="1">
          <mxGeometry x="912" y="179" width="205" height="54" as="geometry" />
        </mxCell>
        <mxCell id="xDN-VP0Rzdzxa3bw4vOh-143" value="xs = linespace(x0, xn, n + 1)" style="whiteSpace=wrap;strokeWidth=2;" vertex="1" parent="1">
          <mxGeometry x="885" y="283" width="260" height="78" as="geometry" />
        </mxCell>
        <mxCell id="xDN-VP0Rzdzxa3bw4vOh-144" value="ys = [0.0] * (n + 1)" style="whiteSpace=wrap;strokeWidth=2;" vertex="1" parent="1">
          <mxGeometry x="920" y="411" width="189" height="54" as="geometry" />
        </mxCell>
        <mxCell id="xDN-VP0Rzdzxa3bw4vOh-145" value="ys  = y0&#xa;i = 0" style="whiteSpace=wrap;strokeWidth=2;" vertex="1" parent="1">
          <mxGeometry x="950" y="515" width="129" height="78" as="geometry" />
        </mxCell>
        <mxCell id="xDN-VP0Rzdzxa3bw4vOh-146" value="i = 0..n" style="shape=hexagon;perimeter=hexagonPerimeter2;fixedSize=1;strokeWidth=2;whiteSpace=wrap;" vertex="1" parent="1">
          <mxGeometry x="972" y="643" width="86" height="39" as="geometry" />
        </mxCell>
        <mxCell id="xDN-VP0Rzdzxa3bw4vOh-147" value="k1 = f(xs , ys )" style="whiteSpace=wrap;strokeWidth=2;" vertex="1" parent="1">
          <mxGeometry x="708" y="755" width="184" height="54" as="geometry" />
        </mxCell>
        <mxCell id="xDN-VP0Rzdzxa3bw4vOh-148" value="k2 = f(xs + h, ys + h * k1)" style="whiteSpace=wrap;strokeWidth=2;" vertex="1" parent="1">
          <mxGeometry x="670" y="859" width="260" height="78" as="geometry" />
        </mxCell>
        <mxCell id="xDN-VP0Rzdzxa3bw4vOh-149" value="ys   = ys + h * (k1 + k2) / 2" style="whiteSpace=wrap;strokeWidth=2;" vertex="1" parent="1">
          <mxGeometry x="818" y="987" width="260" height="78" as="geometry" />
        </mxCell>
        <mxCell id="xDN-VP0Rzdzxa3bw4vOh-150" value="xs, ys" style="shape=parallelogram;perimeter=parallelogramPerimeter;fixedSize=1;strokeWidth=2;whiteSpace=wrap;" vertex="1" parent="1">
          <mxGeometry x="968" y="763" width="94" height="39" as="geometry" />
        </mxCell>
        <mxCell id="xDN-VP0Rzdzxa3bw4vOh-151" value="Конец" style="rounded=1;whiteSpace=wrap;arcSize=50;strokeWidth=2;" vertex="1" parent="1">
          <mxGeometry x="980" y="879" width="70" height="39" as="geometry" />
        </mxCell>
        <mxCell id="xDN-VP0Rzdzxa3bw4vOh-152" value="" style="curved=1;startArrow=none;endArrow=block;exitX=0.5;exitY=1;entryX=0.5;entryY=0;rounded=0;" edge="1" parent="1" source="xDN-VP0Rzdzxa3bw4vOh-141" target="xDN-VP0Rzdzxa3bw4vOh-142">
          <mxGeometry relative="1" as="geometry">
            <Array as="points" />
          </mxGeometry>
        </mxCell>
        <mxCell id="xDN-VP0Rzdzxa3bw4vOh-153" value="" style="curved=1;startArrow=none;endArrow=block;exitX=0.5;exitY=1;entryX=0.5;entryY=0;rounded=0;" edge="1" parent="1" source="xDN-VP0Rzdzxa3bw4vOh-142" target="xDN-VP0Rzdzxa3bw4vOh-143">
          <mxGeometry relative="1" as="geometry">
            <Array as="points" />
          </mxGeometry>
        </mxCell>
        <mxCell id="xDN-VP0Rzdzxa3bw4vOh-154" value="" style="curved=1;startArrow=none;endArrow=block;exitX=0.5;exitY=1;entryX=0.5;entryY=0;rounded=0;" edge="1" parent="1" source="xDN-VP0Rzdzxa3bw4vOh-143" target="xDN-VP0Rzdzxa3bw4vOh-144">
          <mxGeometry relative="1" as="geometry">
            <Array as="points" />
          </mxGeometry>
        </mxCell>
        <mxCell id="xDN-VP0Rzdzxa3bw4vOh-155" value="" style="curved=1;startArrow=none;endArrow=block;exitX=0.5;exitY=1;entryX=0.5;entryY=0;rounded=0;" edge="1" parent="1" source="xDN-VP0Rzdzxa3bw4vOh-144" target="xDN-VP0Rzdzxa3bw4vOh-145">
          <mxGeometry relative="1" as="geometry">
            <Array as="points" />
          </mxGeometry>
        </mxCell>
        <mxCell id="xDN-VP0Rzdzxa3bw4vOh-156" value="" style="curved=1;startArrow=none;endArrow=block;exitX=0.5;exitY=1;entryX=0.5;entryY=0;rounded=0;" edge="1" parent="1" source="xDN-VP0Rzdzxa3bw4vOh-145" target="xDN-VP0Rzdzxa3bw4vOh-146">
          <mxGeometry relative="1" as="geometry">
            <Array as="points" />
          </mxGeometry>
        </mxCell>
        <mxCell id="xDN-VP0Rzdzxa3bw4vOh-157" value="Да" style="curved=1;startArrow=none;endArrow=block;exitX=0;exitY=0.79;entryX=0.5;entryY=0;rounded=0;" edge="1" parent="1" source="xDN-VP0Rzdzxa3bw4vOh-146" target="xDN-VP0Rzdzxa3bw4vOh-147">
          <mxGeometry relative="1" as="geometry">
            <Array as="points">
              <mxPoint x="800" y="719" />
            </Array>
          </mxGeometry>
        </mxCell>
        <mxCell id="xDN-VP0Rzdzxa3bw4vOh-158" value="" style="curved=1;startArrow=none;endArrow=block;exitX=0.5;exitY=1;entryX=0.5;entryY=0;rounded=0;" edge="1" parent="1" source="xDN-VP0Rzdzxa3bw4vOh-147" target="xDN-VP0Rzdzxa3bw4vOh-148">
          <mxGeometry relative="1" as="geometry">
            <Array as="points" />
          </mxGeometry>
        </mxCell>
        <mxCell id="xDN-VP0Rzdzxa3bw4vOh-159" value="" style="curved=1;startArrow=none;endArrow=block;exitX=0.5;exitY=1;entryX=0.15;entryY=0;rounded=0;" edge="1" parent="1" source="xDN-VP0Rzdzxa3bw4vOh-148" target="xDN-VP0Rzdzxa3bw4vOh-149">
          <mxGeometry relative="1" as="geometry">
            <Array as="points">
              <mxPoint x="800" y="962" />
            </Array>
          </mxGeometry>
        </mxCell>
        <mxCell id="xDN-VP0Rzdzxa3bw4vOh-160" value="" style="curved=1;startArrow=none;endArrow=block;exitX=0.85;exitY=0;entryX=0.83;entryY=1;rounded=0;" edge="1" parent="1" source="xDN-VP0Rzdzxa3bw4vOh-149" target="xDN-VP0Rzdzxa3bw4vOh-146">
          <mxGeometry relative="1" as="geometry">
            <Array as="points">
              <mxPoint x="1097" y="962" />
              <mxPoint x="1097" y="719" />
            </Array>
          </mxGeometry>
        </mxCell>
        <mxCell id="xDN-VP0Rzdzxa3bw4vOh-161" value="Нет" style="curved=1;startArrow=none;endArrow=block;exitX=0.5;exitY=1;entryX=0.5;entryY=-0.01;rounded=0;" edge="1" parent="1" source="xDN-VP0Rzdzxa3bw4vOh-146" target="xDN-VP0Rzdzxa3bw4vOh-150">
          <mxGeometry relative="1" as="geometry">
            <Array as="points" />
          </mxGeometry>
        </mxCell>
        <mxCell id="xDN-VP0Rzdzxa3bw4vOh-162" value="" style="curved=1;startArrow=none;endArrow=block;exitX=0.5;exitY=0.99;entryX=0.5;entryY=-0.01;rounded=0;" edge="1" parent="1" source="xDN-VP0Rzdzxa3bw4vOh-150" target="xDN-VP0Rzdzxa3bw4vOh-151">
          <mxGeometry relative="1" as="geometry">
            <Array as="points" />
          </mxGeometry>
        </mxCell>
        <mxCell id="xDN-VP0Rzdzxa3bw4vOh-163" value="&lt;font style=&quot;font-size: 6px;&quot;&gt;0&lt;/font&gt;" style="text;html=1;align=center;verticalAlign=middle;resizable=0;points=[];autosize=1;strokeColor=none;fillColor=none;" vertex="1" parent="1">
          <mxGeometry x="992" y="535" width="30" height="30" as="geometry" />
        </mxCell>
        <mxCell id="xDN-VP0Rzdzxa3bw4vOh-164" value="&lt;font style=&quot;font-size: 6px;&quot;&gt;i&lt;/font&gt;" style="text;html=1;align=center;verticalAlign=middle;resizable=0;points=[];autosize=1;strokeColor=none;fillColor=none;" vertex="1" parent="1">
          <mxGeometry x="799" y="770" width="20" height="30" as="geometry" />
        </mxCell>
        <mxCell id="xDN-VP0Rzdzxa3bw4vOh-165" value="&lt;font style=&quot;font-size: 6px;&quot;&gt;i&lt;/font&gt;" style="text;html=1;align=center;verticalAlign=middle;resizable=0;points=[];autosize=1;strokeColor=none;fillColor=none;" vertex="1" parent="1">
          <mxGeometry x="821" y="770" width="20" height="30" as="geometry" />
        </mxCell>
        <mxCell id="xDN-VP0Rzdzxa3bw4vOh-166" value="&lt;font style=&quot;font-size: 6px;&quot;&gt;i&lt;/font&gt;" style="text;html=1;align=center;verticalAlign=middle;resizable=0;points=[];autosize=1;strokeColor=none;fillColor=none;" vertex="1" parent="1">
          <mxGeometry x="770" y="886" width="20" height="30" as="geometry" />
        </mxCell>
        <mxCell id="xDN-VP0Rzdzxa3bw4vOh-167" value="&lt;font style=&quot;font-size: 6px;&quot;&gt;i+1&lt;/font&gt;" style="text;html=1;align=center;verticalAlign=middle;resizable=0;points=[];autosize=1;strokeColor=none;fillColor=none;" vertex="1" parent="1">
          <mxGeometry x="880" y="1015" width="30" height="30" as="geometry" />
        </mxCell>
        <mxCell id="xDN-VP0Rzdzxa3bw4vOh-168" value="&lt;font style=&quot;font-size: 6px;&quot;&gt;i&lt;/font&gt;" style="text;html=1;align=center;verticalAlign=middle;resizable=0;points=[];autosize=1;strokeColor=none;fillColor=none;" vertex="1" parent="1">
          <mxGeometry x="913" y="1015" width="20" height="30" as="geometry" />
        </mxCell>
      </root>
    </mxGraphModel>
  </diagram>
</mxfile>
